<svg width="46" height="48" viewBox="0 0 46 48" fill="none" xmlns="http://www.w3.org/2000/svg">
<g clip-path="url(#clip0_151_6631)">
<path d="M30.0633 6.63142C30.2516 7.05723 30.5693 7.39309 30.9891 7.5835L32.7356 8.37365C32.8516 8.42659 32.9503 8.51364 33.0196 8.62415C33.0888 8.73466 33.1258 8.86383 33.1258 8.99587C33.1258 9.12792 33.0888 9.25709 33.0196 9.3676C32.9503 9.47811 32.8516 9.56516 32.7356 9.6181L31.0034 10.4082C30.5899 10.5905 30.259 10.9313 30.0791 11.3603L28.7078 14.6094C28.4634 15.1207 27.7259 15.1207 27.4801 14.6094L26.1088 11.3603C25.9246 10.9343 25.5951 10.595 25.1844 10.4082L23.4523 9.6181C23.3363 9.56516 23.2376 9.47811 23.1683 9.3676C23.099 9.25709 23.0621 9.12792 23.0621 8.99587C23.0621 8.86383 23.099 8.73466 23.1683 8.62415C23.2376 8.51364 23.3363 8.42659 23.4523 8.37365L25.1844 7.5835C25.598 7.40125 25.9289 7.06049 26.1088 6.63142L27.4801 3.38236C27.7245 2.87109 28.4619 2.87109 28.7078 3.38236L30.0633 6.63142ZM12.9758 7.74393C13.1105 8.03967 13.3449 8.27341 13.6341 8.40064L14.8761 8.9404C15.2499 9.11582 15.2499 9.6256 14.8761 9.80102L13.6341 10.3408C13.3416 10.4627 13.1056 10.6981 12.9758 10.9975L12.004 13.2315C11.8243 13.5808 11.2996 13.5808 11.1214 13.2315L10.1496 10.9975C10.0154 10.7013 9.78091 10.4674 9.49126 10.3408L8.24926 9.80102C8.16674 9.76668 8.096 9.70732 8.04616 9.63061C7.99632 9.55391 7.96968 9.46337 7.96968 9.37071C7.96968 9.27805 7.99632 9.18751 8.04616 9.1108C8.096 9.0341 8.16674 8.97474 8.24926 8.9404L9.49126 8.40064C9.78384 8.27871 10.0198 8.04335 10.1496 7.74393L11.1214 5.50992C11.3011 5.16058 11.8258 5.16058 12.004 5.50992L12.9758 7.74393ZM-4.2498 38.9826L-6.64036 41.422C-6.79427 41.5817 -6.9164 41.7715 -6.99974 41.9805C-7.08307 42.1896 -7.12598 42.4138 -7.12598 42.6402C-7.12598 42.8666 -7.08307 43.0908 -6.99974 43.2999C-6.9164 43.5089 -6.79427 43.6987 -6.64036 43.8584L-6.05099 44.4731C-5.41849 45.1508 -4.36911 45.1508 -3.73661 44.4581L-1.3748 41.9917L-1.37911 41.9872L18.7502 20.9906L21.1566 18.4912C21.7819 17.824 21.7819 16.632 21.1566 15.9798L20.6822 15.4835C20.0439 14.8283 18.7502 14.9932 18.0314 15.7429L-4.2498 38.9826ZM27.3033 24.436C27.0068 24.2873 26.772 24.0316 26.6421 23.7163L25.6574 21.2844C25.4734 20.8931 24.9501 20.8931 24.7805 21.2844L23.7958 23.7178C23.6657 24.0326 23.4309 24.2877 23.1346 24.436L21.9026 25.0238C21.5332 25.2187 21.5332 25.7734 21.9026 25.9534L23.1331 26.5411C23.4296 26.6899 23.6645 26.9455 23.7944 27.2608L24.7805 29.6927C24.9645 30.084 25.4878 30.084 25.6574 29.6927L26.6421 27.2608C26.7719 26.9454 27.0068 26.6898 27.3033 26.5411L28.5353 25.9534C28.9047 25.7584 28.9047 25.2037 28.5353 25.0238L27.3033 24.436ZM7.2502 20.9906C7.63145 20.9906 7.99708 20.8326 8.26666 20.5514C8.53625 20.2702 8.6877 19.8889 8.6877 19.4912C8.6877 19.0936 8.53625 18.7122 8.26666 18.431C7.99708 18.1498 7.63145 17.9919 7.2502 17.9919C6.86895 17.9919 6.50332 18.1498 6.23373 18.431C5.96415 18.7122 5.8127 19.0936 5.8127 19.4912C5.8127 19.8889 5.96415 20.2702 6.23373 20.5514C6.50332 20.8326 6.86895 20.9906 7.2502 20.9906ZM33.1252 19.4912C33.1252 19.8889 32.9737 20.2702 32.7042 20.5514C32.4346 20.8326 32.0689 20.9906 31.6877 20.9906C31.3064 20.9906 30.9408 20.8326 30.6712 20.5514C30.4016 20.2702 30.2502 19.8889 30.2502 19.4912C30.2502 19.0936 30.4016 18.7122 30.6712 18.431C30.9408 18.1498 31.3064 17.9919 31.6877 17.9919C32.0689 17.9919 32.4346 18.1498 32.7042 18.431C32.9737 18.7122 33.1252 19.0936 33.1252 19.4912ZM17.3127 5.99721C17.6939 5.99721 18.0596 5.83924 18.3292 5.55806C18.5987 5.27688 18.7502 4.89552 18.7502 4.49787C18.7502 4.10022 18.5987 3.71886 18.3292 3.43768C18.0596 3.1565 17.6939 2.99854 17.3127 2.99854C16.9314 2.99854 16.5658 3.1565 16.2962 3.43768C16.0266 3.71886 15.8752 4.10022 15.8752 4.49787C15.8752 4.89552 16.0266 5.27688 16.2962 5.55806C16.5658 5.83924 16.9314 5.99721 17.3127 5.99721ZM18.7502 31.4859C18.7502 31.8835 18.5987 32.2649 18.3292 32.5461C18.0596 32.8273 17.6939 32.9852 17.3127 32.9852C16.9314 32.9852 16.5658 32.8273 16.2962 32.5461C16.0266 32.2649 15.8752 31.8835 15.8752 31.4859C15.8752 31.0883 16.0266 30.7069 16.2962 30.4257C16.5658 30.1445 16.9314 29.9866 17.3127 29.9866C17.6939 29.9866 18.0596 30.1445 18.3292 30.4257C18.5987 30.7069 18.7502 31.0883 18.7502 31.4859Z" fill="#FECC00"/>
</g>
<defs>
<clipPath id="clip0_151_6631">
<rect width="46" height="47.9787" fill="white"/>
</clipPath>
</defs>
</svg>
