<svg width="40" height="38" viewBox="0 0 40 38" fill="none" xmlns="http://www.w3.org/2000/svg">
<g clip-path="url(#clip0_882_1248)">
<path d="M35 5.40137H10.7031L10.4688 4.46387C10.2083 3.26595 9.6224 2.28939 8.71094 1.53418C7.79948 0.778971 6.71875 0.401367 5.46875 0.401367H1.64062C1.17188 0.401367 0.78125 0.557617 0.46875 0.870117C0.15625 1.18262 0 1.59928 0 2.12012C0 2.58887 0.15625 2.97949 0.46875 3.29199C0.78125 3.60449 1.17188 3.76074 1.64062 3.76074H5.46875C6.45833 3.76074 7.03125 4.20345 7.1875 5.08887L11.0156 25.0889C11.3281 26.1826 11.9401 27.068 12.8516 27.7451C13.763 28.4222 14.7656 28.7607 15.8594 28.7607H31.6406C32.1615 28.7607 32.5781 28.6045 32.8906 28.292C33.2031 27.9795 33.3594 27.5889 33.3594 27.1201C33.3594 25.9743 32.7865 25.4014 31.6406 25.4014H15.8594C15.1302 25.4014 14.6094 25.0889 14.2969 24.4639L14.1406 23.7607H30.8594C31.901 23.7607 32.8516 23.4482 33.7109 22.8232C34.5703 22.1982 35.1562 21.391 35.4688 20.4014L40 10.792V10.4014C40 8.99512 39.5182 7.81022 38.5547 6.84668C37.5911 5.88314 36.4062 5.40137 35 5.40137ZM15 20.4014H13.5156L11.3281 8.76074H15V20.4014ZM21.6406 20.4014H18.3594V8.76074H21.6406V20.4014ZM28.3594 20.4014H25V8.76074H28.3594V20.4014ZM32.5 19.0732V19.2295C32.3438 19.7503 32.0573 20.0889 31.6406 20.2451V8.76074H35C35.9375 8.76074 36.4844 9.20345 36.6406 10.0889L32.5 19.0732ZM20 33.7607C20 34.6982 19.6745 35.4925 19.0234 36.1436C18.3724 36.7946 17.5781 37.1201 16.6406 37.1201C15.7552 37.1201 14.987 36.7946 14.3359 36.1436C13.6849 35.4925 13.3594 34.6982 13.3594 33.7607C13.3594 32.8232 13.6849 32.029 14.3359 31.3779C14.987 30.7269 15.7552 30.4014 16.6406 30.4014C17.5781 30.4014 18.3724 30.7269 19.0234 31.3779C19.6745 32.029 20 32.8232 20 33.7607ZM33.3594 33.7607C33.3594 34.6982 33.0339 35.4925 32.3828 36.1436C31.7318 36.7946 30.9375 37.1201 30 37.1201C29.0625 37.1201 28.2682 36.7946 27.6172 36.1436C26.9661 35.4925 26.6406 34.6982 26.6406 33.7607C26.6406 32.8232 26.9661 32.029 27.6172 31.3779C28.2682 30.7269 29.0625 30.4014 30 30.4014C30.9375 30.4014 31.7318 30.7269 32.3828 31.3779C33.0339 32.029 33.3594 32.8232 33.3594 33.7607Z" fill="white"/>
<circle cx="32" cy="20.999" r="8" fill="#FECC00"/>
<path d="M32.57 27.999C32.2167 27.999 32.04 27.8224 32.04 27.469V16.359L32.52 16.289L30.35 18.409C30.23 18.529 30.11 18.5924 29.99 18.599C29.87 18.6057 29.75 18.549 29.63 18.429C29.4033 18.189 29.4067 17.9424 29.64 17.689L32.01 15.379C32.17 15.199 32.3867 15.109 32.66 15.109C32.9467 15.109 33.09 15.2857 33.09 15.639V27.469C33.09 27.8224 32.9167 27.999 32.57 27.999Z" fill="black"/>
</g>
<defs>
<clipPath id="clip0_882_1248">
<rect width="40" height="36.7188" fill="white" transform="translate(0 0.401367)"/>
</clipPath>
</defs>
</svg>
