<svg width="22" height="20" viewBox="0 0 22 20" fill="none" xmlns="http://www.w3.org/2000/svg">
<g clip-path="url(#clip0_2923_2506)">
<path d="M18.4174 2.77321H5.67922L5.55634 2.28171C5.41981 1.65368 5.11262 1.14169 4.63477 0.745757C4.15692 0.349823 3.59032 0.151855 2.93498 0.151855H0.928005C0.682252 0.151855 0.477458 0.233773 0.313624 0.397608C0.149789 0.561443 0.0678711 0.779889 0.0678711 1.05295C0.0678711 1.2987 0.149789 1.50349 0.313624 1.66733C0.477458 1.83116 0.682252 1.91308 0.928005 1.91308H2.93498C3.45379 1.91308 3.75416 2.14518 3.83608 2.60938L5.84305 13.0948C6.00689 13.6682 6.32773 14.1324 6.80558 14.4874C7.28344 14.8424 7.80907 15.0199 8.3825 15.0199H16.6562C16.9292 15.0199 17.1477 14.938 17.3115 14.7741C17.4753 14.6103 17.5573 14.4055 17.5573 14.1597C17.5573 13.559 17.2569 13.2587 16.6562 13.2587H8.3825C8.00021 13.2587 7.72716 13.0948 7.56332 12.7671L7.4814 12.3985H16.2466C16.7927 12.3985 17.291 12.2347 17.7416 11.907C18.1921 11.5793 18.4993 11.1561 18.6631 10.6373L21.0387 5.59937V5.39457C21.0387 4.65732 20.7862 4.03611 20.281 3.53095C19.7759 3.02579 19.1546 2.77321 18.4174 2.77321ZM7.93195 10.6373H7.15373L6.00689 4.53444H7.93195V10.6373ZM11.4134 10.6373H9.69317V4.53444H11.4134V10.6373ZM14.9359 10.6373H13.1747V4.53444H14.9359V10.6373ZM17.1067 9.94099V10.0229C17.0248 10.296 16.8746 10.4735 16.6562 10.5554V4.53444H18.4174C18.9089 4.53444 19.1956 4.76654 19.2775 5.23074L17.1067 9.94099ZM10.5533 17.6412C10.5533 18.1327 10.3826 18.5492 10.0413 18.8905C9.7 19.2318 9.28359 19.4025 8.79208 19.4025C8.32788 19.4025 7.92512 19.2318 7.5838 18.8905C7.24248 18.5492 7.07182 18.1327 7.07182 17.6412C7.07182 17.1497 7.24248 16.7333 7.5838 16.392C7.92512 16.0507 8.32788 15.88 8.79208 15.88C9.28359 15.88 9.7 16.0507 10.0413 16.392C10.3826 16.7333 10.5533 17.1497 10.5533 17.6412ZM17.5573 17.6412C17.5573 18.1327 17.3866 18.5492 17.0453 18.8905C16.7039 19.2318 16.2875 19.4025 15.796 19.4025C15.3045 19.4025 14.8881 19.2318 14.5468 18.8905C14.2055 18.5492 14.0348 18.1327 14.0348 17.6412C14.0348 17.1497 14.2055 16.7333 14.5468 16.392C14.8881 16.0507 15.3045 15.88 15.796 15.88C16.2875 15.88 16.7039 16.0507 17.0453 16.392C17.3866 16.7333 17.5573 17.1497 17.5573 17.6412Z" fill="#222222"/>
</g>
<defs>
<clipPath id="clip0_2923_2506">
<rect width="20.9709" height="19.2506" fill="white" transform="translate(0.0678711 0.151855)"/>
</clipPath>
</defs>
</svg>
