<svg width="40" height="40" viewBox="0 0 40 40" fill="none" xmlns="http://www.w3.org/2000/svg">
<g filter="url(#filter0_d_882_1228)">
<path fill-rule="evenodd" clip-rule="evenodd" d="M18.6454 24.491C15.417 24.491 12.7998 21.8739 12.7998 18.6454C12.7998 15.417 15.417 12.7998 18.6454 12.7998C21.8739 12.7998 24.491 15.417 24.491 18.6454C24.491 19.9963 24.0328 21.2401 23.2634 22.2299L27.1998 26.1664L26.1664 27.1998L22.23 23.2633C21.2401 24.0328 19.9963 24.491 18.6454 24.491ZM23.0295 18.6454C23.0295 21.0667 21.0667 23.0296 18.6453 23.0296C16.224 23.0296 14.2611 21.0667 14.2611 18.6454C14.2611 16.224 16.224 14.2612 18.6453 14.2612C21.0667 14.2612 23.0295 16.224 23.0295 18.6454Z" fill="white"/>
</g>
<defs>
<filter id="filter0_d_882_1228" x="-22" y="-21" width="84" height="84" filterUnits="userSpaceOnUse" color-interpolation-filters="sRGB">
<feFlood flood-opacity="0" result="BackgroundImageFix"/>
<feColorMatrix in="SourceAlpha" type="matrix" values="0 0 0 0 0 0 0 0 0 0 0 0 0 0 0 0 0 0 127 0" result="hardAlpha"/>
<feOffset dy="1"/>
<feGaussianBlur stdDeviation="15"/>
<feComposite in2="hardAlpha" operator="out"/>
<feColorMatrix type="matrix" values="0 0 0 0 0.265872 0 0 0 0 0.0669097 0 0 0 0 0.341667 0 0 0 0.2 0"/>
<feBlend mode="normal" in2="BackgroundImageFix" result="effect1_dropShadow_882_1228"/>
<feBlend mode="normal" in="SourceGraphic" in2="effect1_dropShadow_882_1228" result="shape"/>
</filter>
</defs>
</svg>
