<svg width="40" height="40" viewBox="0 0 40 40" fill="none" xmlns="http://www.w3.org/2000/svg">
<path fill-rule="evenodd" clip-rule="evenodd" d="M18.3333 6.75854V5.00033H16.6667V1.66699H23.3333V5.00033H21.6667V6.75854C24.5592 7.07829 27.2038 8.22049 29.3615 9.9461L32.1522 7.14309L34.5144 9.49494L31.7188 12.3029C33.7721 14.8692 35 18.1247 35 21.667C35 29.9513 28.2843 36.667 20 36.667C11.7157 36.667 5 29.9513 5 21.667C5 13.9461 10.8334 7.58761 18.3333 6.75854ZM20 33.3337C26.4433 33.3337 31.6667 28.1103 31.6667 21.667C31.6667 15.2237 26.4433 10.0003 20 10.0003C13.5567 10.0003 8.33333 15.2237 8.33333 21.667C8.33333 28.1103 13.5567 33.3337 20 33.3337ZM21.6667 23.3337V13.3337H18.3333V23.3337H21.6667Z" fill="white"/>
</svg>
